<svg width="40" height="40" viewBox="0 0 40 40" fill="none" xmlns="http://www.w3.org/2000/svg">
<path fill-rule="evenodd" clip-rule="evenodd" d="M17.0223 25.1777C16.816 24.9714 16.7002 24.6917 16.7002 24.4C16.7002 24.1083 16.816 23.8286 17.0223 23.6223L20.6446 20L17.0223 16.3777C16.8219 16.1702 16.711 15.8923 16.7135 15.6039C16.716 15.3155 16.8317 15.0396 17.0357 14.8357C17.2396 14.6317 17.5155 14.516 17.8039 14.5135C18.0923 14.511 18.3702 14.6219 18.5777 14.8223L22.9777 19.2223C23.1839 19.4286 23.2997 19.7083 23.2997 20C23.2997 20.2917 23.1839 20.5714 22.9777 20.7777L18.5777 25.1777C18.3714 25.3839 18.0916 25.4997 17.8 25.4997C17.5083 25.4997 17.2285 25.3839 17.0223 25.1777Z" fill="#111827"/>
</svg>
