<svg width="40" height="40" viewBox="0 0 40 40" fill="none" xmlns="http://www.w3.org/2000/svg">
<g opacity="0.38">
<path fill-rule="evenodd" clip-rule="evenodd" d="M22.9777 14.8223C23.1839 15.0286 23.2997 15.3083 23.2997 15.6C23.2997 15.8917 23.1839 16.1714 22.9777 16.3777L19.3554 20L22.9777 23.6223C23.178 23.8298 23.2889 24.1076 23.2864 24.3961C23.2839 24.6845 23.1682 24.9604 22.9643 25.1643C22.7603 25.3683 22.4844 25.4839 22.196 25.4865C21.9076 25.489 21.6297 25.3781 21.4223 25.1777L17.0223 20.7777C16.816 20.5714 16.7002 20.2917 16.7002 20C16.7002 19.7083 16.816 19.4286 17.0223 19.2223L21.4223 14.8223C21.6285 14.6161 21.9083 14.5002 22.2 14.5002C22.4916 14.5002 22.7714 14.6161 22.9777 14.8223Z" fill="#111827"/>
</g>
</svg>
