<svg width="25" height="24" viewBox="0 0 25 24" fill="none" xmlns="http://www.w3.org/2000/svg">
<path fill-rule="evenodd" clip-rule="evenodd" d="M3.93359 20.4C3.93359 20.0818 4.06002 19.7765 4.28507 19.5515C4.51011 19.3265 4.81533 19.2 5.13359 19.2H19.5336C19.8519 19.2 20.1571 19.3265 20.3821 19.5515C20.6072 19.7765 20.7336 20.0818 20.7336 20.4C20.7336 20.7183 20.6072 21.0235 20.3821 21.2486C20.1571 21.4736 19.8519 21.6 19.5336 21.6H5.13359C4.81533 21.6 4.51011 21.4736 4.28507 21.2486C4.06002 21.0235 3.93359 20.7183 3.93359 20.4ZM7.88519 11.1516C8.11023 10.9267 8.4154 10.8003 8.73359 10.8003C9.05179 10.8003 9.35696 10.9267 9.58199 11.1516L11.1336 12.7032V3.60002C11.1336 3.28176 11.26 2.97654 11.4851 2.7515C11.7101 2.52645 12.0153 2.40002 12.3336 2.40002C12.6519 2.40002 12.9571 2.52645 13.1821 2.7515C13.4072 2.97654 13.5336 3.28176 13.5336 3.60002V12.7032L15.0852 11.1516C15.1959 11.037 15.3283 10.9456 15.4747 10.8827C15.6211 10.8198 15.7786 10.7867 15.9379 10.7853C16.0972 10.7839 16.2553 10.8143 16.4027 10.8746C16.5502 10.935 16.6842 11.0241 16.7969 11.1368C16.9095 11.2494 16.9986 11.3834 17.059 11.5309C17.1193 11.6784 17.1497 11.8364 17.1483 11.9957C17.1469 12.155 17.1138 12.3125 17.0509 12.4589C16.988 12.6053 16.8966 12.7377 16.782 12.8484L13.182 16.4484C12.957 16.6734 12.6518 16.7998 12.3336 16.7998C12.0154 16.7998 11.7102 16.6734 11.4852 16.4484L7.88519 12.8484C7.66023 12.6234 7.53385 12.3182 7.53385 12C7.53385 11.6818 7.66023 11.3767 7.88519 11.1516V11.1516Z" fill="#6B7280"/>
</svg>
